<svg width="70" height="28" viewBox="0 0 70 28" fill="none" xmlns="http://www.w3.org/2000/svg">
<g clip-path="url(#clip0_9_329)">
<path d="M40.1803 27.1088C39.1405 27.7029 36.7638 28.5199 35.8726 27.9257C34.8328 27.2573 34.9071 25.6976 35.7983 24.9549C36.9124 23.9894 41.3686 21.2414 41.1458 22.504C40.9973 23.5438 41.2944 23.321 42.1113 22.6525C43.0768 21.9098 43.5225 19.9045 41.3686 17.8992C40.8487 17.4536 38.7692 15.0027 37.9522 13.8143C36.9867 12.3289 35.9469 11.6605 36.0211 9.50663C36.0954 6.53581 39.8089 3.34217 42.4084 1.85676C44.9336 0.371352 48.3501 -0.816976 48.3501 1.11406C48.3501 2.45093 47.8302 4.38196 42.4084 6.90716C41.0715 7.50133 43.3739 4.38196 40.7002 7.12997C39.5861 8.3183 39.5861 10.1008 41.2201 12.1061C41.9628 12.9973 44.488 15.6711 45.5278 17.3793C47.6816 21.0186 47.0132 21.8355 43.9681 24.3607C42.9283 25.0292 41.5172 26.2918 40.1803 27.1088Z" fill="#E30613"/>
<path d="M12.4032 21.3156C11.809 21.3156 11.2891 20.6472 10.695 19.3103C10.3236 18.4191 9.95226 17.4536 9.72944 16.3395C9.20955 16.4138 8.39257 16.4881 7.12997 16.5623C6.01592 16.6366 5.12467 16.7109 4.5305 16.8594C4.08488 17.9735 3.49072 19.1618 2.82228 20.4244C2.5252 20.9443 2.07958 21.2414 1.48541 21.2414C1.11406 21.2414 0.742706 21.0928 0.445623 20.7958C0.148541 20.4987 0 20.2016 0 19.756C0 19.3846 0.519894 18.122 1.55968 15.9682C1.48541 15.7454 1.41114 15.5225 1.41114 15.374C1.41114 15.0027 1.78249 14.7798 2.45093 14.557C3.49072 12.7745 4.60477 10.9178 5.86737 8.98674C7.64987 6.23873 8.76393 4.82759 9.13528 4.82759C9.95226 4.82759 10.4721 5.27321 10.695 6.23873C10.8435 6.90716 11.0663 8.02122 11.3634 9.72944C11.7347 11.5862 12.2546 13.9629 12.9973 16.9337C13.0716 17.0822 13.2202 17.6021 13.5172 18.3448C13.7401 18.939 13.8886 19.4589 13.8886 19.756C13.8886 20.2016 13.7401 20.4987 13.443 20.7958C13.1459 21.0928 12.7745 21.3156 12.4032 21.3156ZM8.39257 10.1751C7.79841 11.1406 7.0557 12.4775 6.09019 14.1114C6.38727 14.0371 6.90716 13.9629 7.5756 13.9629C8.39257 13.8886 8.91247 13.8886 9.06101 13.8143C8.91247 12.9231 8.68966 11.6605 8.39257 10.1751Z" fill="white"/>
<path d="M21.0186 16.4138C22.1327 13.6658 22.9496 11.5119 23.5438 9.80371C23.7666 9.20955 24.0637 8.3183 24.435 7.20424C24.8064 6.23873 25.252 5.42175 25.7719 4.82759C26.069 4.45623 26.5146 4.30769 26.9602 4.30769C27.4059 4.30769 27.7029 4.45623 28.0743 4.75331C28.3714 5.0504 28.5199 5.42175 28.5199 5.7931C28.5199 6.09018 28.4457 6.38727 28.2228 6.68435C27.8515 7.27851 27.4801 7.94695 27.1831 8.76392C27.1088 8.98674 26.8117 9.72944 26.3661 10.9178C25.8462 12.3289 24.8807 14.8541 23.4695 18.4934C23.0982 19.3846 22.7268 20.2759 22.2812 21.0928C21.9841 21.687 21.5385 21.9098 20.9443 21.9098C20.2016 21.9098 19.6817 21.5385 19.3846 20.87C18.5677 18.939 17.6022 15.8939 16.4881 11.7347C16.2653 11.0663 15.9682 10.1008 15.5968 8.76392C15.1512 7.42705 15.0027 6.46154 15.0027 5.94164C15.0027 5.49602 15.1512 5.19894 15.4483 4.90186C15.7454 4.60477 16.1167 4.45623 16.4881 4.45623C17.1565 4.45623 17.6764 4.82759 17.8992 5.57029C17.9735 6.01591 18.122 6.61008 18.3449 7.42705C18.5677 8.09549 18.8648 9.28382 19.3846 10.9178C20.0531 13.2202 20.573 15.0769 21.0186 16.4138Z" fill="white"/>
<path d="M32.6791 15.8939C32.6791 16.3395 32.6791 17.008 32.7533 17.8992C32.8276 18.7904 32.8276 19.4589 32.8276 19.9045C32.8276 20.3501 32.6791 20.6472 32.382 20.9443C32.0849 21.2414 31.7136 21.3156 31.3422 21.3156C30.9709 21.3156 30.5995 21.1671 30.3024 20.9443C30.0053 20.7215 29.8568 20.3501 29.8568 19.9045C29.8568 19.4589 29.8568 18.7904 29.7825 17.8992C29.7825 17.008 29.7083 16.3395 29.7083 15.8939C29.7083 15.374 29.7083 14.557 29.7825 13.443C29.8568 12.3289 29.8568 11.5862 29.8568 10.992C29.8568 10.5464 30.0053 10.2493 30.3024 9.95225C30.5995 9.65517 30.9709 9.5809 31.3422 9.5809C31.7136 9.5809 32.0849 9.72944 32.382 9.95225C32.6791 10.2493 32.8276 10.5464 32.8276 10.992C32.8276 11.5119 32.8276 12.3289 32.7533 13.443C32.6791 14.557 32.6791 15.374 32.6791 15.8939ZM31.7878 7.94695C31.3422 7.94695 30.8966 7.79841 30.5995 7.50133C30.2281 7.20424 30.0796 6.83289 30.0796 6.38727C30.0796 5.94164 30.2281 5.57029 30.5995 5.27321C30.9709 4.97613 31.3422 4.82759 31.7878 4.82759C32.2335 4.82759 32.6048 4.97613 32.9762 5.27321C33.2732 5.57029 33.496 5.94164 33.496 6.38727C33.496 6.83289 33.3475 7.20424 32.9762 7.50133C32.6048 7.79841 32.2335 7.94695 31.7878 7.94695Z" fill="white"/>
<path d="M57.5596 21.7613C57.2625 21.7613 56.7426 21.3899 55.9999 20.6472C54.663 21.3156 53.6975 21.6127 52.9548 21.6127C49.5384 21.6127 47.7559 19.756 47.7559 16.0424C47.7559 14.2599 48.4243 12.7745 49.6869 11.5119C50.9495 10.3236 52.4349 9.65517 54.2174 9.65517C54.8858 9.65517 55.7028 9.87798 56.5941 10.2493C57.7081 10.695 58.228 11.2891 58.228 11.8833C58.228 12.1804 58.1537 12.4032 58.0052 12.5517C57.8567 13.1459 57.7824 14.0371 57.7824 15.1512C57.7824 16.5623 57.8567 17.5278 58.0795 18.122C58.0795 18.1963 58.228 18.5676 58.5994 19.2361C58.8964 19.8302 59.045 20.2016 59.045 20.2759C59.045 20.6472 58.8964 20.9443 58.5994 21.2414C58.3023 21.6127 57.9309 21.7613 57.5596 21.7613ZM54.8858 14.2599C54.8858 13.8143 54.9601 13.2202 55.1086 12.4775C54.8116 12.3289 54.5888 12.2546 54.4402 12.2546C53.4747 12.2546 52.5834 12.626 51.915 13.443C51.1723 14.1857 50.8752 15.0769 50.8752 16.1167C50.8752 18.0477 51.5437 19.0133 52.9548 19.0133C53.846 19.0133 54.5887 18.7162 55.3315 18.122C55.0344 16.4138 54.8858 15.1512 54.8858 14.2599Z" fill="white"/>
<path d="M68.0318 12.2546C67.8833 12.2546 67.7348 12.2546 67.5119 12.2546C67.2891 12.2546 67.0663 12.2546 66.992 12.2546C66.695 12.2546 66.3236 12.2546 65.9523 12.3289C66.1008 15.2255 66.1751 17.1565 66.1751 18.0477C66.1751 18.1963 66.1751 18.3448 66.1751 18.6419C66.1751 18.8647 66.1751 19.0875 66.1751 19.2361C66.1751 20.87 65.6552 21.7613 64.6154 21.7613C64.244 21.7613 63.8727 21.6127 63.5756 21.3899C63.2785 21.1671 63.13 20.7958 63.13 20.4244C63.13 20.1273 63.13 19.756 63.13 19.2361C63.13 18.7162 63.13 18.3448 63.13 18.0477C63.13 17.1565 63.0557 15.2997 62.9072 12.4032C61.7188 12.3289 61.0504 12.2546 60.7533 12.2546C59.9363 12.0318 59.4907 11.5862 59.4907 10.8435C59.4907 10.3979 59.6393 10.1008 59.9363 9.80371C60.2334 9.50663 60.5305 9.35809 60.9761 9.35809C61.2732 9.35809 61.8674 9.43236 62.8329 9.50663C62.8329 9.35809 62.8329 8.98674 62.7586 8.39257C62.7586 7.94695 62.6844 7.5756 62.6844 7.27851C62.6844 6.83289 62.8329 6.53581 63.13 6.23873C63.4271 5.94164 63.7984 5.86737 64.1698 5.86737C65.2838 5.86737 65.8037 6.75862 65.7295 8.54111V9.43236C66.1751 9.35809 66.5464 9.35809 66.8435 9.35809C67.6605 9.35809 68.1804 9.43236 68.5517 9.50663C69.1459 9.72944 69.443 10.1751 69.443 10.8435C69.443 11.2891 69.2944 11.5862 68.9974 11.8833C68.7745 12.1061 68.4775 12.2546 68.0318 12.2546Z" fill="white"/>
</g>
<defs>
<clipPath id="clip0_9_329">
<rect width="69.443" height="28" fill="white"/>
</clipPath>
</defs>
</svg>
