<svg width="213" height="80" viewBox="0 0 213 80" fill="none" xmlns="http://www.w3.org/2000/svg">
<g clip-path="url(#clip0_5_79)">
<path d="M0.482993 73.0785V71.9517H5.31293L6.60091 73.2394V79.6781H1.28798L0 78.5513V76.1368L1.28798 74.8491H5.15193L4.66893 73.4004L0.482993 73.0785ZM4.99093 78.8732V76.1368H1.93197L1.44898 77.7465L2.09297 78.8732H4.99093Z" fill="white"/>
<path d="M8.04987 78.5513V72.1127H9.49885L9.82084 78.5513L13.0408 78.8732V72.1127H14.4898V80H9.33785L8.04987 78.5513Z" fill="white"/>
<path d="M21.0907 72.1127V68.7324H22.5397V80H17.2268L16.0998 78.5513V73.4004L17.3878 72.1127H21.0907ZM21.0907 78.8732V73.2394H18.0318L17.5488 74.8491L17.8708 78.5513L21.0907 78.8732Z" fill="white"/>
<path d="M24.3107 72.1127H25.7596V80H24.3107V72.1127ZM24.3107 70.503V68.7324H25.7596V70.503H24.3107Z" fill="white"/>
<path d="M27.3696 73.4004L28.6576 72.1127H32.8436L34.1315 73.4004V78.5513L32.8436 79.839H28.6576L27.3696 78.5513V73.4004ZM32.1996 78.5513V73.5614L29.4626 73.2394L28.9796 74.8491L29.3016 78.5513H32.1996Z" fill="white"/>
<path d="M37.8345 72.9175V72.1127H39.1225L40.8934 78.2294H41.3764L43.1474 72.1127H45.4014V72.9175L44.2744 73.7223L42.3424 80H40.2494L37.8345 72.9175Z" fill="white"/>
<path d="M45.4014 72.1127H46.8503V80H45.4014V72.1127ZM45.4014 70.503V68.7324H46.8503V70.503H45.4014Z" fill="white"/>
<path d="M53.4512 72.1127V68.7324H54.9002V80H49.5873L48.2993 78.7123V73.5614L49.5873 72.2736H53.4512V72.1127ZM53.4512 78.8732V73.2394H50.3923L49.9093 74.8491L50.2313 78.5513L53.4512 78.8732Z" fill="white"/>
<path d="M56.5102 73.4004L57.7982 72.1127H61.9841L63.2721 73.4004V76.4587H57.9592L58.2812 78.3903L63.1111 78.2294L62.7891 79.6781L57.9592 80L56.5102 78.7123V73.4004ZM61.6621 75.493L61.3401 73.5614L58.7642 73.2394L57.9592 73.8833V75.332H61.6621V75.493Z" fill="white"/>
<path d="M64.5601 73.4004L65.848 72.1127H70.034L71.322 73.4004V78.5513L70.034 79.839H65.848L64.5601 78.5513V73.4004ZM69.39 78.5513V73.5614L66.653 73.2394L66.17 74.8491L66.492 78.5513H69.39Z" fill="white"/>
<path d="M75.8299 73.4004L77.1179 72.1127H81.3039L82.5918 73.7223L77.6009 73.4004V75.0101L81.4649 75.493L82.5918 77.4245L81.4649 79.3561L76.9569 79.6781L75.6689 78.2294L80.6599 78.5513V76.9416L77.1179 76.6197L75.8299 75.493V73.4004Z" fill="#E30613"/>
<path d="M83.8798 80V72.1127H94.0227L95.3107 73.4004V79.839H93.8617V74.0443L92.8957 73.4004H90.4807V79.839H89.0318V73.4004H85.3288V79.839H83.8798V80Z" fill="#E30613"/>
<path d="M97.0816 73.0785V71.9517H101.912L103.2 73.2394V79.6781H97.8866L96.5986 78.5513V76.1368L97.8866 74.8491H101.751L101.268 73.4004L97.0816 73.0785ZM101.59 78.8732V76.1368H98.5306L98.0476 77.7465L98.6916 78.8732H101.59Z" fill="#E30613"/>
<path d="M104.648 80V72.1127H106.258V73.4004L107.546 72.1127H109.478V73.2394H108.19L106.258 75.0101V79.839H104.648V80Z" fill="#E30613"/>
<path d="M109.639 72.1127V68.7324H111.088V72.1127H113.181V73.2394H111.088L111.41 78.5513L113.02 78.8732V80H110.927L109.639 78.7123V73.4004H107.547V72.2736H109.639V72.1127Z" fill="#E30613"/>
<path d="M118.172 73.2394V72.1127H123.002L124.29 73.4004V79.839H118.977L117.689 78.5513V76.1368L118.977 74.8491H122.841L122.358 73.5614L118.172 73.2394ZM122.68 78.8732V76.1368H119.621L119.138 77.7465L119.782 78.8732H122.68Z" fill="white"/>
<path d="M130.73 72.1127V68.7324H132.179V80H126.866L125.578 78.7123V73.5614L126.866 72.2736H130.73V72.1127ZM130.73 78.8732V73.2394H127.671L127.188 74.8491L127.51 78.5513L130.73 78.8732Z" fill="white"/>
<path d="M133.789 72.9175V72.1127H135.077L136.848 78.2294H137.331L139.102 72.1127H140.39V72.9175L138.136 79.839H136.043L133.789 72.9175Z" fill="white"/>
<path d="M139.102 73.2394V72.1127H147.152L148.44 73.4004V79.839H143.127L141.839 78.5513V76.1368L143.127 74.8491H146.991L146.508 73.5614L139.102 73.2394ZM146.83 78.8732V76.1368H143.771L143.288 77.7465L143.932 78.8732H146.83Z" fill="white"/>
<path d="M149.889 80V72.1127H155.202L156.49 73.4004V79.839H155.041L154.719 73.4004L151.499 73.0785V79.839H149.889V80Z" fill="white"/>
<path d="M157.939 73.4004L159.227 72.1127H163.413L164.701 73.7223L164.057 74.3662L161.642 72.9175L159.71 73.2394V78.2294L161.642 78.5513L164.057 77.1026L164.701 77.9074L163.413 79.5171H159.227L157.939 78.2294V73.4004Z" fill="white"/>
<path d="M165.989 73.4004L167.277 72.1127H171.463L172.751 73.4004V76.4587H167.438L167.76 78.3903L172.59 78.2294L172.268 79.5171L167.438 79.839L165.989 78.5513V73.4004ZM171.141 75.493L170.819 73.5614L168.243 73.2394L167.599 74.0443V75.493H171.141Z" fill="white"/>
<path d="M179.191 72.1127V68.7324H180.639V80H175.327L174.039 78.7123V73.5614L175.327 72.2736H179.191V72.1127ZM179.191 78.8732V73.2394H176.132L175.649 74.8491L175.971 78.5513L179.191 78.8732Z" fill="white"/>
<path d="M185.952 72.1127V68.7324H187.401V72.1127H189.494V73.2394H187.401L187.723 78.5513L189.494 78.8732V80H187.24L185.952 78.7123V73.4004H183.859V72.2736H185.952V72.1127Z" fill="white"/>
<path d="M190.46 73.4004L191.748 72.1127H195.934L197.222 73.4004V76.4587H192.07L192.392 78.3903L197.222 78.2294L196.9 79.5171L192.07 79.839L190.621 78.5513V73.4004H190.46ZM195.612 75.493L195.29 73.5614L192.714 73.2394L192.07 74.0443V75.493H195.612Z" fill="white"/>
<path d="M198.51 73.4004L199.798 72.1127H203.984L205.272 73.7223L204.628 74.3662L202.213 72.9175L200.281 73.2394V78.2294L202.213 78.5513L204.628 77.1026L205.272 77.9074L203.984 79.5171H199.637L198.349 78.2294V73.4004H198.51Z" fill="white"/>
<path d="M206.399 80V68.7324H207.848V72.1127H211.712L213 73.4004V79.839H211.551L211.229 73.4004L208.009 73.0785V79.839H206.399V80Z" fill="white"/>
<path d="M118.333 58.7525C116.079 60.0402 110.927 61.8109 108.995 60.5231C106.741 59.0744 106.902 55.6942 108.834 54.0845C111.249 51.9919 120.909 46.0362 120.426 48.7726C120.104 51.0262 120.748 50.5433 122.519 49.0946C124.612 47.4849 125.578 43.1388 120.909 38.7928C119.782 37.827 115.274 32.5151 113.503 29.9396C111.41 26.7203 109.156 25.2716 109.317 20.6036C109.478 14.165 117.528 7.24346 123.163 4.02414C128.637 0.804829 136.043 -1.77062 136.043 2.41449C136.043 5.31187 134.916 9.49698 123.163 14.9698C120.265 16.2575 125.256 9.49698 119.46 15.4527C117.045 18.0282 117.045 21.8913 120.587 26.2374C122.197 28.169 127.671 33.9638 129.925 37.666C134.594 45.5533 133.145 47.3239 126.544 52.7968C124.29 54.2455 121.231 56.9819 118.333 58.7525Z" fill="#E30613"/>
<path d="M58.1202 46.1972C56.8322 46.1972 55.7052 44.7485 54.4173 41.8511C53.6123 39.9195 52.8073 37.827 52.3243 35.4125C51.1973 35.5734 49.4263 35.7344 46.6894 35.8954C44.2744 36.0563 42.3424 36.2173 41.0544 36.5392C40.0885 38.9537 38.8005 41.5292 37.3515 44.2656C36.7075 45.3923 35.7415 46.0362 34.4535 46.0362C33.6485 46.0362 32.8436 45.7143 32.1996 45.0704C31.5556 44.4266 31.2336 43.7827 31.2336 42.8169C31.2336 42.0121 32.3606 39.2757 34.6145 34.6076C34.4535 34.1247 34.2925 33.6418 34.2925 33.3199C34.2925 32.5151 35.0975 32.0322 36.5465 31.5493C38.8005 27.6861 41.2154 23.662 43.9524 19.4769C47.8163 13.5211 50.2313 10.4628 51.0363 10.4628C52.8073 10.4628 53.9343 11.4286 54.4173 13.5211C54.7392 14.9698 55.2222 17.3843 55.8662 21.0865C56.6712 25.1107 57.7982 30.2616 59.4082 36.7002C59.5692 37.0221 59.8912 38.1489 60.5352 39.7585C61.0182 41.0463 61.3402 42.173 61.3402 42.8169C61.3402 43.7827 61.0182 44.4266 60.3742 45.0704C59.7302 45.7143 58.9252 46.1972 58.1202 46.1972ZM49.4263 22.0523C48.1383 24.1449 46.5284 27.0422 44.4354 30.5835C45.0794 30.4225 46.2064 30.2616 47.6553 30.2616C49.4263 30.1006 50.5533 30.1006 50.8753 29.9396C50.5533 28.008 50.0703 25.2716 49.4263 22.0523Z" fill="white"/>
<path d="M76.7959 35.5734C79.2109 29.6177 80.9819 24.9497 82.2699 21.2475C82.7529 19.9598 83.3969 18.0282 84.2018 15.6137C85.0068 13.5211 85.9728 11.7505 87.0998 10.4628C87.7438 9.65795 88.7098 9.33601 89.6758 9.33601C90.6418 9.33601 91.2857 9.65795 92.0907 10.3018C92.7347 10.9457 93.0567 11.7505 93.0567 12.5553C93.0567 13.1992 92.8957 13.8431 92.4127 14.4869C91.6077 15.7746 90.8027 17.2233 90.1588 18.994C89.9978 19.4769 89.3538 21.0865 88.3878 23.662C87.2608 26.7203 85.1678 32.1932 82.1089 40.0805C81.3039 42.0121 80.4989 43.9437 79.5329 45.7143C78.8889 47.002 77.9229 47.4849 76.6349 47.4849C75.025 47.4849 73.898 46.6801 73.254 45.2314C71.483 41.0463 69.39 34.4467 66.9751 25.4326C66.4921 23.9839 65.8481 21.8913 65.0431 18.994C64.0771 16.0966 63.7551 14.004 63.7551 12.8773C63.7551 11.9115 64.0771 11.2676 64.7211 10.6237C65.3651 9.97988 66.1701 9.65795 66.9751 9.65795C68.4241 9.65795 69.551 10.4628 70.034 12.0724C70.195 13.0382 70.517 14.326 71 16.0966C71.483 17.5453 72.127 20.1207 73.254 23.662C74.703 28.6519 75.83 32.6761 76.7959 35.5734Z" fill="white"/>
<path d="M102.073 34.4467C102.073 35.4125 102.073 36.8612 102.234 38.7928C102.395 40.7243 102.395 42.173 102.395 43.1388C102.395 44.1046 102.073 44.7485 101.429 45.3924C100.785 46.0362 99.9796 46.1972 99.1746 46.1972C98.3696 46.1972 97.5647 45.8752 96.9207 45.3924C96.2767 44.9095 95.9547 44.1046 95.9547 43.1388C95.9547 42.173 95.9547 40.7243 95.7937 38.7928C95.7937 36.8612 95.6327 35.4125 95.6327 34.4467C95.6327 33.3199 95.6327 31.5493 95.7937 29.1348C95.9547 26.7203 95.9547 25.1107 95.9547 23.8229C95.9547 22.8571 96.2767 22.2133 96.9207 21.5694C97.5647 20.9255 98.3696 20.7646 99.1746 20.7646C99.9796 20.7646 100.785 21.0865 101.429 21.5694C102.073 22.2133 102.395 22.8571 102.395 23.8229C102.395 24.9497 102.395 26.7203 102.234 29.1348C102.073 31.5493 102.073 33.3199 102.073 34.4467ZM100.141 17.2233C99.1746 17.2233 98.2086 16.9014 97.5647 16.2575C96.7597 15.6137 96.4377 14.8088 96.4377 13.8431C96.4377 12.8773 96.7597 12.0724 97.5647 11.4286C98.3696 10.7847 99.1746 10.4628 100.141 10.4628C101.107 10.4628 101.912 10.7847 102.717 11.4286C103.361 12.0724 103.844 12.8773 103.844 13.8431C103.844 14.8088 103.522 15.6137 102.717 16.2575C101.912 16.9014 101.107 17.2233 100.141 17.2233Z" fill="white"/>
<path d="M156.007 47.163C155.363 47.163 154.236 46.3581 152.626 44.7485C149.728 46.1972 147.635 46.841 146.025 46.841C138.619 46.841 134.755 42.8169 134.755 34.7686C134.755 30.9054 136.204 27.6861 138.941 24.9497C141.678 22.3742 144.898 20.9256 148.762 20.9256C150.211 20.9256 151.982 21.4085 153.914 22.2133C156.329 23.1791 157.456 24.4668 157.456 25.7545C157.456 26.3984 157.295 26.8813 156.973 27.2032C156.651 28.4909 156.49 30.4225 156.49 32.837C156.49 35.8954 156.651 37.9879 157.134 39.2757C157.134 39.4366 157.456 40.2414 158.261 41.6901C158.905 42.9779 159.227 43.7827 159.227 43.9437C159.227 44.7485 158.905 45.3924 158.261 46.0362C157.617 46.841 156.812 47.163 156.007 47.163ZM150.211 30.9054C150.211 29.9396 150.372 28.6519 150.694 27.0423C150.05 26.7203 149.567 26.5594 149.245 26.5594C147.152 26.5594 145.22 27.3642 143.771 29.1348C142.161 30.7445 141.517 32.6761 141.517 34.9296C141.517 39.1147 142.966 41.2072 146.025 41.2072C147.957 41.2072 149.567 40.5634 151.177 39.2757C150.533 35.5734 150.211 32.837 150.211 30.9054Z" fill="white"/>
<path d="M178.707 26.5594C178.385 26.5594 178.064 26.5594 177.581 26.5594C177.098 26.5594 176.615 26.5594 176.454 26.5594C175.81 26.5594 175.005 26.5594 174.2 26.7203C174.522 32.998 174.683 37.1831 174.683 39.1147C174.683 39.4366 174.683 39.7586 174.683 40.4024C174.683 40.8853 174.683 41.3682 174.683 41.6901C174.683 45.2314 173.556 47.163 171.302 47.163C170.497 47.163 169.692 46.841 169.048 46.3581C168.404 45.8752 168.082 45.0704 168.082 44.2656C168.082 43.6217 168.082 42.8169 168.082 41.6901C168.082 40.5634 168.082 39.7585 168.082 39.1147C168.082 37.1831 167.921 33.159 167.599 26.8813C165.023 26.7203 163.574 26.5594 162.93 26.5594C161.159 26.0765 160.193 25.1107 160.193 23.501C160.193 22.5352 160.515 21.8913 161.159 21.2475C161.803 20.6036 162.447 20.2817 163.413 20.2817C164.057 20.2817 165.345 20.4427 167.438 20.6036C167.438 20.2817 167.438 19.4769 167.277 18.1891C167.277 17.2233 167.116 16.4185 167.116 15.7746C167.116 14.8089 167.438 14.165 168.082 13.5211C168.726 12.8773 169.531 12.7163 170.336 12.7163C172.751 12.7163 173.878 14.6479 173.717 18.5111V20.4427C174.683 20.2817 175.488 20.2817 176.132 20.2817C177.903 20.2817 179.029 20.4427 179.834 20.6036C181.122 21.0865 181.766 22.0523 181.766 23.501C181.766 24.4668 181.444 25.1107 180.8 25.7545C180.317 26.2374 179.673 26.5594 178.707 26.5594Z" fill="white"/>
</g>
<defs>
<clipPath id="clip0_5_79">
<rect width="213" height="80" fill="white"/>
</clipPath>
</defs>
</svg>
