<svg width="213" height="80" viewBox="0 0 213 80" fill="none" xmlns="http://www.w3.org/2000/svg">
<path d="M0.482993 72.8428V71.716H5.31293L6.60091 73.0038V79.4424H1.28798L0 78.3156V75.9011L1.28798 74.6134H5.15193L4.66893 73.1647L0.482993 72.8428ZM4.99093 78.6376V75.9011H1.93197L1.44898 77.5108L2.09297 78.6376H4.99093Z" fill="#171717"/>
<path d="M8.04989 78.3156V71.877H9.49887L9.82086 78.3156L13.0408 78.6376V71.877H14.4898V79.7643H9.33787L8.04989 78.3156Z" fill="#171717"/>
<path d="M21.0907 71.877V68.4967H22.5397V79.7643H17.2268L16.0998 78.3156V73.1647L17.3878 71.877H21.0907ZM21.0907 78.6376V73.0038H18.0317L17.5487 74.6134L17.8707 78.3156L21.0907 78.6376Z" fill="#171717"/>
<path d="M24.3107 71.877H25.7596V79.7643H24.3107V71.877ZM24.3107 70.2673V68.4967H25.7596V70.2673H24.3107Z" fill="#171717"/>
<path d="M27.3696 73.1647L28.6576 71.877H32.8435L34.1315 73.1647V78.3156L32.8435 79.6033H28.6576L27.3696 78.3156V73.1647ZM32.1995 78.3156V73.3257L29.4626 73.0038L28.9796 74.6134L29.3016 78.3156H32.1995Z" fill="#171717"/>
<path d="M37.8345 72.6818V71.877H39.1224L40.8934 77.9937H41.3764L43.1474 71.877H45.4014V72.6818L44.2744 73.4866L42.3424 79.7643H40.2494L37.8345 72.6818Z" fill="#171717"/>
<path d="M45.4014 71.877H46.8503V79.7643H45.4014V71.877ZM45.4014 70.2673V68.4967H46.8503V70.2673H45.4014Z" fill="#171717"/>
<path d="M53.4512 68.4967H54.9002V79.7643H49.5873L48.2993 78.4766V73.3257L49.5873 72.038H53.4512V68.4967ZM53.4512 78.6376V73.0038H50.3923L49.9093 74.6134L50.2313 78.3156L53.4512 78.6376Z" fill="#171717"/>
<path d="M56.5102 73.1647L57.7982 71.877H61.9841L63.2721 73.1647V76.2231H57.9592L58.2812 78.1547L63.1111 77.9937L62.7891 79.4424L57.9592 79.7643L56.5102 78.4766V73.1647ZM61.6621 75.2573L61.3401 73.3257L58.7642 73.0038L57.9592 73.6476V75.0963H61.6621V75.2573Z" fill="#171717"/>
<path d="M64.5601 73.1647L65.8481 71.877H70.034L71.322 73.1647V78.3156L70.034 79.6033H65.8481L64.5601 78.3156V73.1647ZM69.39 78.3156V73.3257L66.6531 73.0038L66.1701 74.6134L66.4921 78.3156H69.39Z" fill="#171717"/>
<path d="M75.8299 73.1647L77.1179 71.877H81.3038L82.5918 73.4866L77.6009 73.1647V74.7744L81.4648 75.2573L82.5918 77.1889L81.4648 79.1205L76.9569 79.4424L75.6689 77.9937L80.6599 78.3156V76.706L77.1179 76.384L75.8299 75.2573V73.1647Z" fill="#E30613"/>
<path d="M83.8798 79.7643V71.877H94.0227L95.3107 73.1647V79.6033H93.8617V73.8086L92.8957 73.1647H90.4807V79.6033H89.0317V73.1647H85.3288V79.6033H83.8798V79.7643Z" fill="#E30613"/>
<path d="M97.0816 72.8428V71.716H101.912L103.2 73.0038V79.4424H97.8866L96.5986 78.3156V75.9011L97.8866 74.6134H101.751L101.268 73.1647L97.0816 72.8428ZM101.59 78.6376V75.9011H98.5306L98.0476 77.5108L98.6916 78.6376H101.59Z" fill="#E30613"/>
<path d="M104.649 79.7643V71.877H106.258V73.1647L107.546 71.877H109.478V73.0038H108.19L106.258 74.7744V79.6033H104.649V79.7643Z" fill="#E30613"/>
<path d="M109.639 68.4967H111.088V71.877H113.181V73.0038H111.088L111.41 78.3156L113.02 78.6376V79.7643H110.927L109.639 78.4766V73.1647H107.546V72.038H109.639V68.4967Z" fill="#E30613"/>
<path d="M118.172 73.0038V71.877H123.002L124.29 73.1647V79.6033H118.977L117.689 78.3156V75.9011L118.977 74.6134H122.841L122.358 73.3257L118.172 73.0038ZM122.68 78.6376V75.9011H119.621L119.138 77.5108L119.782 78.6376H122.68Z" fill="#171717"/>
<path d="M130.73 68.4967H132.179V79.7643H126.866L125.578 78.4766V73.3257L126.866 72.038H130.73V68.4967ZM130.73 78.6376V73.0038H127.671L127.188 74.6134L127.51 78.3156L130.73 78.6376Z" fill="#171717"/>
<path d="M133.789 72.6818V71.877H135.077L136.848 77.9937H137.331L139.102 71.877H140.39V72.6818L138.136 79.6033H136.043L133.789 72.6818Z" fill="#171717"/>
<path d="M139.102 73.0038L139.102 71.877H147.152L148.44 73.1647V79.6033H143.127L141.839 78.3156V75.9011L143.127 74.6134H146.991L146.508 73.3257L139.102 73.0038ZM146.83 78.6376V75.9011H143.771L143.288 77.5108L143.932 78.6376H146.83Z" fill="#171717"/>
<path d="M149.889 79.7643V71.877H155.202L156.49 73.1647V79.6033H155.041L154.719 73.1647L151.499 72.8428V79.6033H149.889V79.7643Z" fill="#171717"/>
<path d="M157.939 73.1647L159.227 71.877H163.413L164.701 73.4866L164.057 74.1305L161.642 72.6818L159.71 73.0038V77.9937L161.642 78.3156L164.057 76.8669L164.701 77.6718L163.413 79.2814H159.227L157.939 77.9937V73.1647Z" fill="#171717"/>
<path d="M165.989 73.1647L167.277 71.877H171.463L172.751 73.1647V76.2231H167.438L167.76 78.1547L172.59 77.9937L172.268 79.2814L167.438 79.6033L165.989 78.3156V73.1647ZM171.141 75.2573L170.819 73.3257L168.243 73.0038L167.599 73.8086V75.2573H171.141Z" fill="#171717"/>
<path d="M179.19 68.4967H180.639V79.7643H175.327L174.039 78.4766V73.3257L175.327 72.038H179.19V68.4967ZM179.19 78.6376V73.0038H176.132L175.649 74.6134L175.971 78.3156L179.19 78.6376Z" fill="#171717"/>
<path d="M185.952 68.4967H187.401V71.877H189.494V73.0038H187.401L187.723 78.3156L189.494 78.6376V79.7643H187.24L185.952 78.4766V73.1647H183.859V72.038H185.952V68.4967Z" fill="#171717"/>
<path d="M190.46 73.1647L191.748 71.877H195.934L197.222 73.1647V76.2231H192.07L192.392 78.1547L197.222 77.9937L196.9 79.2814L192.07 79.6033L190.621 78.3156V73.1647H190.46ZM195.612 75.2573L195.29 73.3257L192.714 73.0038L192.07 73.8086V75.2573H195.612Z" fill="#171717"/>
<path d="M198.51 73.1647L199.798 71.877H203.984L205.272 73.4866L204.628 74.1305L202.213 72.6818L200.281 73.0038V77.9937L202.213 78.3156L204.628 76.8669L205.272 77.6718L203.984 79.2814H199.637L198.349 77.9937V73.1647H198.51Z" fill="#171717"/>
<path d="M206.399 79.7643V68.4967H207.848V71.877H211.712L213 73.1647V79.6033H211.551L211.229 73.1647L208.009 72.8428V79.6033H206.399V79.7643Z" fill="#171717"/>
<path d="M118.333 58.5168C116.079 59.8046 110.927 61.5752 108.995 60.2874C106.741 58.8388 106.902 55.4585 108.834 53.8488C111.249 51.7563 120.909 45.8005 120.426 48.5369C120.104 50.7905 120.748 50.3076 122.519 48.8589C124.612 47.2492 125.578 42.9031 120.909 38.5571C119.782 37.5913 115.274 32.2794 113.503 29.704C111.41 26.4846 109.156 25.0359 109.317 20.3679C109.478 13.9293 117.528 7.00778 123.163 3.78846C128.637 0.569145 136.043 -2.00631 136.043 2.1788C136.043 5.07619 134.916 9.2613 123.163 14.7341C120.265 16.0219 125.256 9.2613 119.46 15.217C117.045 17.7925 117.045 21.6557 120.587 26.0017C122.197 27.9333 127.671 33.7281 129.925 37.4303C134.594 45.3176 133.145 47.0883 126.544 52.5611C124.29 54.0098 121.231 56.7462 118.333 58.5168Z" fill="#E30613"/>
<path d="M58.1202 45.9615C56.8322 45.9615 55.7052 44.5128 54.4172 41.6154C53.6122 39.6838 52.8073 37.5913 52.3243 35.1768C51.1973 35.3378 49.4263 35.4987 46.6893 35.6597C44.2744 35.8207 42.3424 35.9816 41.0544 36.3036C40.0884 38.718 38.8005 41.2935 37.3515 44.0299C36.7075 45.1567 35.7415 45.8005 34.4535 45.8005C33.6485 45.8005 32.8435 45.4786 32.1995 44.8347C31.5556 44.1909 31.2336 43.547 31.2336 42.5812C31.2336 41.7764 32.3605 39.04 34.6145 34.372C34.4535 33.8891 34.2925 33.4062 34.2925 33.0842C34.2925 32.2794 35.0975 31.7965 36.5465 31.3136C38.8005 27.4504 41.2154 23.4263 43.9524 19.2412C47.8163 13.2854 50.2313 10.2271 51.0363 10.2271C52.8073 10.2271 53.9342 11.1929 54.4172 13.2854C54.7392 14.7341 55.2222 17.1486 55.8662 20.8508C56.6712 24.875 57.7982 30.0259 59.4082 36.4645C59.5692 36.7864 59.8912 37.9132 60.5351 39.5229C61.0181 40.8106 61.3401 41.9374 61.3401 42.5812C61.3401 43.547 61.0181 44.1909 60.3741 44.8347C59.7302 45.4786 58.9252 45.9615 58.1202 45.9615ZM49.4263 21.8166C48.1383 23.9092 46.5283 26.8066 44.4354 30.3478C45.0794 30.1869 46.2063 30.0259 47.6553 30.0259C49.4263 29.8649 50.5533 29.8649 50.8753 29.704C50.5533 27.7724 50.0703 25.0359 49.4263 21.8166Z" fill="#171717"/>
<path d="M76.7959 35.3378C79.2109 29.382 80.9819 24.714 82.2698 21.0118C82.7528 19.7241 83.3968 17.7925 84.2018 15.378C85.0068 13.2854 85.9728 11.5148 87.0998 10.2271C87.7438 9.42226 88.7097 9.10033 89.6757 9.10033C90.6417 9.10033 91.2857 9.42226 92.0907 10.0661C92.7347 10.71 93.0567 11.5148 93.0567 12.3196C93.0567 12.9635 92.8957 13.6074 92.4127 14.2512C91.6077 15.539 90.8027 16.9877 90.1587 18.7583C89.9977 19.2412 89.3537 20.8508 88.3878 23.4263C87.2608 26.4846 85.1678 31.9575 82.1088 39.8448C81.3039 41.7764 80.4989 43.708 79.5329 45.4786C78.8889 46.7663 77.9229 47.2492 76.6349 47.2492C75.0249 47.2492 73.898 46.4444 73.254 44.9957C71.483 40.8106 69.39 34.211 66.9751 25.1969C66.4921 23.7482 65.8481 21.6557 65.0431 18.7583C64.0771 15.8609 63.7551 13.7683 63.7551 12.6416C63.7551 11.6758 64.0771 11.0319 64.7211 10.3881C65.3651 9.7442 66.1701 9.42226 66.9751 9.42226C68.424 9.42226 69.551 10.2271 70.034 11.8368C70.195 12.8025 70.517 14.0903 71 15.8609C71.483 17.3096 72.127 19.885 73.254 23.4263C74.7029 28.4162 75.8299 32.4404 76.7959 35.3378Z" fill="#171717"/>
<path d="M102.073 34.211C102.073 35.1768 102.073 36.6255 102.234 38.5571C102.395 40.4887 102.395 41.9374 102.395 42.9031C102.395 43.8689 102.073 44.5128 101.429 45.1567C100.785 45.8005 99.9796 45.9615 99.1746 45.9615C98.3696 45.9615 97.5646 45.6396 96.9206 45.1567C96.2766 44.6738 95.9546 43.8689 95.9546 42.9031C95.9546 41.9374 95.9546 40.4887 95.7936 38.5571C95.7936 36.6255 95.6326 35.1768 95.6326 34.211C95.6326 33.0842 95.6326 31.3136 95.7936 28.8991C95.9546 26.4846 95.9546 24.875 95.9546 23.5873C95.9546 22.6215 96.2766 21.9776 96.9206 21.3337C97.5646 20.6899 98.3696 20.5289 99.1746 20.5289C99.9796 20.5289 100.785 20.8508 101.429 21.3337C102.073 21.9776 102.395 22.6215 102.395 23.5873C102.395 24.714 102.395 26.4846 102.234 28.8991C102.073 31.3136 102.073 33.0842 102.073 34.211ZM100.141 16.9877C99.1746 16.9877 98.2086 16.6657 97.5646 16.0219C96.7596 15.378 96.4376 14.5732 96.4376 13.6074C96.4376 12.6416 96.7596 11.8368 97.5646 11.1929C98.3696 10.549 99.1746 10.2271 100.141 10.2271C101.107 10.2271 101.912 10.549 102.717 11.1929C103.361 11.8368 103.844 12.6416 103.844 13.6074C103.844 14.5732 103.522 15.378 102.717 16.0219C101.912 16.6657 101.107 16.9877 100.141 16.9877Z" fill="#171717"/>
<path d="M156.007 46.9273C155.363 46.9273 154.236 46.1225 152.626 44.5128C149.728 45.9615 147.635 46.6054 146.025 46.6054C138.619 46.6054 134.755 42.5812 134.755 34.5329C134.755 30.6697 136.204 27.4504 138.941 24.714C141.678 22.1386 144.898 20.6899 148.762 20.6899C150.211 20.6899 151.982 21.1728 153.914 21.9776C156.329 22.9434 157.456 24.2311 157.456 25.5188C157.456 26.1627 157.295 26.6456 156.973 26.9675C156.651 28.2553 156.49 30.1869 156.49 32.6013C156.49 35.6597 156.651 37.7522 157.134 39.04C157.134 39.2009 157.456 40.0058 158.261 41.4545C158.905 42.7422 159.227 43.547 159.227 43.708C159.227 44.5128 158.905 45.1567 158.261 45.8005C157.617 46.6054 156.812 46.9273 156.007 46.9273ZM150.211 30.6697C150.211 29.704 150.372 28.4162 150.694 26.8066C150.05 26.4846 149.567 26.3237 149.245 26.3237C147.152 26.3237 145.22 27.1285 143.771 28.8991C142.161 30.5088 141.517 32.4404 141.517 34.6939C141.517 38.879 142.966 40.9716 146.025 40.9716C147.957 40.9716 149.567 40.3277 151.177 39.04C150.533 35.3378 150.211 32.6013 150.211 30.6697Z" fill="#171717"/>
<path d="M178.707 26.3237C178.385 26.3237 178.063 26.3237 177.581 26.3237C177.098 26.3237 176.615 26.3237 176.454 26.3237C175.81 26.3237 175.005 26.3237 174.2 26.4846C174.522 32.7623 174.683 36.9474 174.683 38.879C174.683 39.2009 174.683 39.5229 174.683 40.1667C174.683 40.6496 174.683 41.1325 174.683 41.4545C174.683 44.9957 173.556 46.9273 171.302 46.9273C170.497 46.9273 169.692 46.6054 169.048 46.1225C168.404 45.6396 168.082 44.8347 168.082 44.0299C168.082 43.386 168.082 42.5812 168.082 41.4545C168.082 40.3277 168.082 39.5229 168.082 38.879C168.082 36.9474 167.921 32.9233 167.599 26.6456C165.023 26.4846 163.574 26.3237 162.93 26.3237C161.159 25.8408 160.193 24.875 160.193 23.2653C160.193 22.2995 160.515 21.6557 161.159 21.0118C161.803 20.3679 162.447 20.046 163.413 20.046C164.057 20.046 165.345 20.207 167.438 20.3679C167.438 20.046 167.438 19.2412 167.277 17.9535C167.277 16.9877 167.116 16.1828 167.116 15.539C167.116 14.5732 167.438 13.9293 168.082 13.2854C168.726 12.6416 169.531 12.4806 170.336 12.4806C172.751 12.4806 173.878 14.4122 173.717 18.2754V20.207C174.683 20.046 175.488 20.046 176.132 20.046C177.902 20.046 179.029 20.207 179.834 20.3679C181.122 20.8508 181.766 21.8166 181.766 23.2653C181.766 24.2311 181.444 24.875 180.8 25.5188C180.317 26.0017 179.673 26.3237 178.707 26.3237Z" fill="#171717"/>
</svg>
