<svg width="70" height="29" viewBox="0 0 70 29" fill="none" xmlns="http://www.w3.org/2000/svg">
<path d="M40.1804 27C39.1406 27.5942 36.7639 28.4111 35.8727 27.817C34.8329 27.1485 34.9072 25.5889 35.7984 24.8462C36.9125 23.8806 41.3687 21.1326 41.1459 22.3952C40.9974 23.435 41.2944 23.2122 42.1114 22.5438C43.0769 21.8011 43.5225 19.7958 41.3687 17.7905C40.8488 17.3448 38.7692 14.8939 37.9523 13.7056C36.9867 12.2202 35.947 11.5517 36.0212 9.39789C36.0955 6.42706 39.809 3.23343 42.4085 1.74802C44.9337 0.262607 48.3501 -0.925722 48.3501 1.00531C48.3501 2.34218 47.8302 4.27322 42.4085 6.79842C41.0716 7.39258 43.374 4.27322 40.7003 7.02123C39.5862 8.20956 39.5862 9.99205 41.2202 11.9974C41.9629 12.8886 44.4881 15.5623 45.5279 17.2706C47.6817 20.9098 47.0133 21.7268 43.9682 24.252C42.9284 24.9204 41.5172 26.183 40.1804 27Z" fill="#E30613"/>
<path d="M12.4032 21.2069C11.809 21.2069 11.2891 20.5385 10.695 19.2016C10.3236 18.3104 9.95226 17.3448 9.72944 16.2308C9.20955 16.305 8.39257 16.3793 7.12997 16.4536C6.01592 16.5279 5.12467 16.6021 4.5305 16.7507C4.08488 17.8647 3.49072 19.0531 2.82228 20.3157C2.5252 20.8356 2.07958 21.1326 1.48541 21.1326C1.11406 21.1326 0.742706 20.9841 0.445623 20.687C0.148541 20.3899 0 20.0928 0 19.6472C0 19.2759 0.519894 18.0133 1.55968 15.8594C1.48541 15.6366 1.41114 15.4138 1.41114 15.2653C1.41114 14.8939 1.78249 14.6711 2.45093 14.4483C3.49072 12.6658 4.60477 10.809 5.86737 8.87799C7.64987 6.12998 8.76393 4.71884 9.13528 4.71884C9.95225 4.71884 10.4721 5.16446 10.695 6.12998C10.8435 6.79842 11.0663 7.91247 11.3634 9.6207C11.7347 11.4775 12.2546 13.8541 12.9973 16.8249C13.0716 16.9735 13.2202 17.4934 13.5172 18.2361C13.7401 18.8302 13.8886 19.3501 13.8886 19.6472C13.8886 20.0928 13.7401 20.3899 13.443 20.687C13.1459 20.9841 12.7745 21.2069 12.4032 21.2069ZM8.39257 10.0663C7.79841 11.0318 7.0557 12.3687 6.09019 14.0027C6.38727 13.9284 6.90716 13.8541 7.5756 13.8541C8.39257 13.7798 8.91247 13.7798 9.06101 13.7056C8.91247 12.8143 8.68966 11.5517 8.39257 10.0663Z" fill="#171717"/>
<path d="M21.0186 16.305C22.1326 13.557 22.9496 11.4032 23.5438 9.69497C23.7666 9.1008 24.0637 8.20956 24.435 7.0955C24.8064 6.12998 25.252 5.313 25.7719 4.71884C26.069 4.34749 26.5146 4.19895 26.9602 4.19895C27.4058 4.19895 27.7029 4.34749 28.0743 4.64457C28.3714 4.94165 28.5199 5.313 28.5199 5.68436C28.5199 5.98144 28.4456 6.27852 28.2228 6.5756C27.8515 7.16977 27.4801 7.8382 27.183 8.65518C27.1088 8.87799 26.8117 9.6207 26.366 10.809C25.8462 12.2202 24.8806 14.7454 23.4695 18.3846C23.0981 19.2759 22.7268 20.1671 22.2812 20.9841C21.9841 21.5783 21.5385 21.8011 20.9443 21.8011C20.2016 21.8011 19.6817 21.4297 19.3846 20.7613C18.5676 18.8302 17.6021 15.7852 16.4881 11.626C16.2653 10.9576 15.9682 9.99205 15.5968 8.65518C15.1512 7.31831 15.0027 6.35279 15.0027 5.8329C15.0027 5.38728 15.1512 5.09019 15.4483 4.79311C15.7454 4.49603 16.1167 4.34749 16.4881 4.34749C17.1565 4.34749 17.6764 4.71884 17.8992 5.46155C17.9735 5.90717 18.122 6.50133 18.3448 7.31831C18.5676 7.98674 18.8647 9.17507 19.3846 10.809C20.053 13.1114 20.5729 14.9682 21.0186 16.305Z" fill="#171717"/>
<path d="M32.679 15.7852C32.679 16.2308 32.679 16.8992 32.7533 17.7905C32.8276 18.6817 32.8276 19.3501 32.8276 19.7958C32.8276 20.2414 32.679 20.5385 32.382 20.8356C32.0849 21.1326 31.7135 21.2069 31.3422 21.2069C30.9708 21.2069 30.5995 21.0584 30.3024 20.8356C30.0053 20.6127 29.8568 20.2414 29.8568 19.7958C29.8568 19.3501 29.8568 18.6817 29.7825 17.7905C29.7825 16.8992 29.7082 16.2308 29.7082 15.7852C29.7082 15.2653 29.7082 14.4483 29.7825 13.3342C29.8568 12.2202 29.8568 11.4775 29.8568 10.8833C29.8568 10.4377 30.0053 10.1406 30.3024 9.84351C30.5995 9.54643 30.9708 9.47216 31.3422 9.47216C31.7135 9.47216 32.0849 9.6207 32.382 9.84351C32.679 10.1406 32.8276 10.4377 32.8276 10.8833C32.8276 11.4032 32.8276 12.2202 32.7533 13.3342C32.679 14.4483 32.679 15.2653 32.679 15.7852ZM31.7878 7.8382C31.3422 7.8382 30.8966 7.68966 30.5995 7.39258C30.2281 7.0955 30.0796 6.72415 30.0796 6.27852C30.0796 5.8329 30.2281 5.46155 30.5995 5.16446C30.9708 4.86738 31.3422 4.71884 31.7878 4.71884C32.2334 4.71884 32.6048 4.86738 32.9761 5.16446C33.2732 5.46155 33.496 5.8329 33.496 6.27852C33.496 6.72415 33.3475 7.0955 32.9761 7.39258C32.6048 7.68966 32.2334 7.8382 31.7878 7.8382Z" fill="#171717"/>
<path d="M57.5597 21.6525C57.2626 21.6525 56.7427 21.2812 56 20.5385C54.6631 21.2069 53.6976 21.504 52.9549 21.504C49.5385 21.504 47.756 19.6472 47.756 15.9337C47.756 14.1512 48.4244 12.6658 49.687 11.4032C50.9496 10.2149 52.435 9.54643 54.2175 9.54643C54.8859 9.54643 55.7029 9.76924 56.5942 10.1406C57.7082 10.5862 58.2281 11.1804 58.2281 11.7745C58.2281 12.0716 58.1538 12.2944 58.0053 12.443C57.8568 13.0371 57.7825 13.9284 57.7825 15.0424C57.7825 16.4536 57.8568 17.4191 58.0796 18.0133C58.0796 18.0875 58.2281 18.4589 58.5995 19.1273C58.8966 19.7215 59.0451 20.0928 59.0451 20.1671C59.0451 20.5385 58.8966 20.8356 58.5995 21.1326C58.3024 21.504 57.931 21.6525 57.5597 21.6525ZM54.8859 14.1512C54.8859 13.7056 54.9602 13.1114 55.1087 12.3687C54.8117 12.2202 54.5889 12.1459 54.4403 12.1459C53.4748 12.1459 52.5836 12.5172 51.9151 13.3342C51.1724 14.0769 50.8753 14.9682 50.8753 16.008C50.8753 17.939 51.5438 18.9045 52.9549 18.9045C53.8462 18.9045 54.5889 18.6074 55.3316 18.0133C55.0345 16.305 54.8859 15.0424 54.8859 14.1512Z" fill="#171717"/>
<path d="M68.0318 12.1459C67.8833 12.1459 67.7348 12.1459 67.5119 12.1459C67.2891 12.1459 67.0663 12.1459 66.992 12.1459C66.695 12.1459 66.3236 12.1459 65.9523 12.2202C66.1008 15.1167 66.1751 17.0478 66.1751 17.939C66.1751 18.0875 66.1751 18.2361 66.1751 18.5332C66.1751 18.756 66.1751 18.9788 66.1751 19.1273C66.1751 20.7613 65.6552 21.6525 64.6154 21.6525C64.244 21.6525 63.8727 21.504 63.5756 21.2812C63.2785 21.0584 63.13 20.687 63.13 20.3157C63.13 20.0186 63.13 19.6472 63.13 19.1273C63.13 18.6074 63.13 18.2361 63.13 17.939C63.13 17.0478 63.0557 15.191 62.9072 12.2944C61.7188 12.2202 61.0504 12.1459 60.7533 12.1459C59.9363 11.9231 59.4907 11.4775 59.4907 10.7348C59.4907 10.2891 59.6393 9.99205 59.9363 9.69497C60.2334 9.39789 60.5305 9.24934 60.9761 9.24934C61.2732 9.24934 61.8674 9.32361 62.8329 9.39789C62.8329 9.24934 62.8329 8.87799 62.7586 8.28383C62.7586 7.8382 62.6844 7.46685 62.6844 7.16977C62.6844 6.72415 62.8329 6.42706 63.13 6.12998C63.4271 5.8329 63.7984 5.75863 64.1698 5.75863C65.2838 5.75863 65.8037 6.64987 65.7294 8.43237V9.32362C66.1751 9.24934 66.5464 9.24934 66.8435 9.24934C67.6605 9.24934 68.1804 9.32361 68.5517 9.39789C69.1459 9.6207 69.443 10.0663 69.443 10.7348C69.443 11.1804 69.2944 11.4775 68.9973 11.7745C68.7745 11.9974 68.4775 12.1459 68.0318 12.1459Z" fill="#171717"/>
</svg>
